<?xml version="1.0" standalone="no"?>
<!DOCTYPE svg PUBLIC "-//W3C//DTD SVG 20010904//EN"
 "http://www.w3.org/TR/2001/REC-SVG-20010904/DTD/svg10.dtd">
<svg version="1.0" xmlns="http://www.w3.org/2000/svg"
 width="590.000000pt" height="590.000000pt" viewBox="0 0 590.000000 590.000000"
 preserveAspectRatio="xMidYMid meet">
<metadata>
Created by potrace 1.13, written by Peter Selinger 2001-2015
</metadata>
<g transform="translate(0.000000,590.000000) scale(0.100000,-0.100000)"
fill="#000000" stroke="none">
<path d="M0 2950 l0 -2950 243 2 242 3 -237 2 -238 3 0 2940 0 2940 2393 3
2392 2 -2397 3 -2398 2 0 -2950z"/>
<path d="M5668 5893 l222 -3 0 -2940 0 -2940 -1510 0 -1510 0 0 235 0 235 353
3 c193 1 49 3 -320 5 l-673 2 0 285 0 285 1303 2 1302 3 0 485 0 485 -5 -480
-5 -480 -1505 -5 c-828 -3 -1414 -6 -1302 -8 l202 -2 0 -285 0 -285 -865 0
-865 0 -3 803 -2 802 -3 -807 -2 -808 1190 0 1190 0 0 -235 0 -235 -872 -3
c-480 -1 204 -3 1520 -5 l2392 -2 0 2950 0 2950 -227 -2 -228 -3 223 -2z"/>
<path d="M482 4493 l3 -928 2 922 3 923 758 3 757 2 -762 3 -763 2 2 -927z"/>
<path d="M3962 5413 l1448 -3 3 -598 2 -597 3 603 2 602 -1452 -2 -1453 -3
1447 -2z"/>
<path d="M1067 4833 c-4 -3 -7 -429 -7 -945 l0 -938 -282 -3 -283 -2 282 -3
283 -2 2 -937 3 -938 150 -1 150 0 -145 5 -145 6 0 1875 0 1875 1875 0 1875 0
2 -1175 c2 -646 4 -1184 6 -1195 3 -11 5 51 6 138 l1 157 285 0 285 0 0 -1130
0 -1130 -687 -3 -688 -2 693 -3 692 -2 -2 1663 c-2 914 -4 1427 -5 1140 l-3
-523 -285 0 -285 0 0 875 0 875 280 0 c180 0 280 4 280 10 0 6 -100 10 -280
10 l-279 0 -3 153 -3 152 -1881 3 c-1034 1 -1884 -1 -1887 -5z"/>
<path d="M2862 4558 l-2 -268 -625 0 -625 0 0 -1340 0 -1340 463 2 462 3 -457
2 -458 3 0 660 0 660 275 0 275 0 0 -385 0 -385 243 2 242 3 -237 2 -238 3 -2
433 c-1 237 -3 411 -5 385 l-4 -48 -275 0 -274 0 0 665 0 665 908 2 c499 2
780 4 625 5 l-283 3 -3 268 -2 267 -3 -267z"/>
<path d="M4078 4283 l202 -3 0 -1330 0 -1330 -637 -3 -638 -2 643 -3 642 -2 0
1340 0 1340 -207 -2 -208 -3 203 -2z"/>
<path d="M2172 3598 l2 -133 3 128 4 127 769 0 770 0 0 -770 0 -770 -252 -3
-253 -2 258 -3 257 -2 0 780 0 780 -780 0 -780 0 2 -132z"/>
<path d="M484 2825 c0 -154 2 -216 3 -137 2 79 2 205 0 280 -1 75 -3 11 -3
-143z"/>
</g>
</svg>
