<?xml version="1.0" standalone="no"?>
<!DOCTYPE svg PUBLIC "-//W3C//DTD SVG 20010904//EN"
 "http://www.w3.org/TR/2001/REC-SVG-20010904/DTD/svg10.dtd">
<svg version="1.0" xmlns="http://www.w3.org/2000/svg"
 width="590.000000pt" height="590.000000pt" viewBox="0 0 590.000000 590.000000"
 preserveAspectRatio="xMidYMid meet">
<metadata>
Created by potrace 1.13, written by Peter Selinger 2001-2015
</metadata>
<g transform="translate(0.000000,590.000000) scale(0.100000,-0.100000)"
fill="#000000" stroke="none">
<path d="M0 2950 l0 -2950 2950 0 2950 0 0 2950 0 2950 -2950 0 -2950 0 0
-2950z m5890 0 l0 -2940 -1505 0 -1505 0 0 235 0 235 350 0 c227 0 350 4 350
10 0 7 -230 10 -670 10 l-670 0 0 280 0 280 1300 0 1300 0 0 490 c0 320 -3
490 -10 490 -7 0 -10 -167 -10 -480 l0 -480 -1500 0 c-993 0 -1500 -3 -1500
-10 0 -6 73 -10 200 -10 l200 0 0 -280 0 -280 -860 0 -860 0 0 800 c0 527 -3
800 -10 800 -7 0 -10 -277 -10 -810 l0 -810 1190 0 1190 0 0 -235 0 -235
-1425 0 -1425 0 0 2940 0 2940 2940 0 2940 0 0 -2940z"/>
<path d="M480 4490 c0 -613 3 -930 10 -930 7 0 10 313 10 920 l0 920 750 0
c493 0 750 3 750 10 0 7 -260 10 -760 10 l-760 0 0 -930z"/>
<path d="M2520 5410 c0 -7 487 -10 1440 -10 l1440 0 0 -435 0 -435 -280 0
-280 0 0 155 0 155 -1890 0 -1890 0 0 -940 0 -940 -280 0 -280 0 0 70 c0 40
-4 70 -10 70 -6 0 -10 -98 -10 -275 0 -177 4 -275 10 -275 6 0 10 72 10 195
l0 195 280 0 280 0 0 -940 0 -940 155 0 c97 0 155 4 155 10 0 6 -55 10 -145
10 l-145 0 0 1870 0 1870 890 0 890 0 0 -265 0 -265 -625 0 -625 0 0 -1340 0
-1340 465 0 c303 0 465 3 465 10 0 7 -158 10 -455 10 l-455 0 0 655 0 655 265
0 265 0 0 -390 0 -390 245 0 c157 0 245 4 245 10 0 6 -85 10 -235 10 l-235 0
0 435 c0 283 -3 435 -10 435 -5 0 -10 -20 -10 -45 l0 -45 -265 0 -265 0 0 655
0 655 900 0 c593 0 900 3 900 10 0 6 -98 10 -275 10 l-275 0 0 265 0 265 970
0 970 0 0 -1190 c0 -787 3 -1190 10 -1190 6 0 10 57 10 150 l0 150 280 0 280
0 0 -1120 0 -1120 -685 0 c-450 0 -685 -3 -685 -10 0 -7 238 -10 695 -10 l695
0 0 1660 c0 1100 -3 1660 -10 1660 -7 0 -10 -180 -10 -520 l0 -520 -280 0
-280 0 0 875 0 875 280 0 280 0 0 -145 c0 -90 4 -145 10 -145 7 0 10 207 10
600 l0 600 -1450 0 c-960 0 -1450 -3 -1450 -10z"/>
<path d="M3880 4280 c0 -6 72 -10 195 -10 l195 0 0 -1320 0 -1320 -635 0
c-417 0 -635 -3 -635 -10 0 -7 222 -10 645 -10 l645 0 0 1340 0 1340 -205 0
c-130 0 -205 -4 -205 -10z"/>
<path d="M2160 3605 c0 -83 4 -135 10 -135 6 0 10 48 10 125 l0 125 770 0 770
0 0 -770 0 -770 -255 0 c-163 0 -255 -4 -255 -10 0 -6 95 -10 265 -10 l265 0
0 790 0 790 -790 0 -790 0 0 -135z"/>
</g>
</svg>
